<?xml version="1.0" encoding="UTF-8"?>
<svg version="1.1" xmlns="http://www.w3.org/2000/svg" width="429" height="321">
<path d="M0 0 C0.72058594 -0.02835937 1.44117188 -0.05671875 2.18359375 -0.0859375 C8.52249495 1.14228966 13.26832489 6.78660231 17.640625 11.1875 C18.29327332 11.83823486 18.94592163 12.48896973 19.61834717 13.15942383 C20.98890867 14.52863074 22.35697345 15.90034096 23.72265625 17.27441406 C25.81289752 19.37539956 27.91363949 21.46545914 30.015625 23.5546875 C31.34960037 24.88998391 32.6829555 26.22590029 34.015625 27.5625 C34.64269348 28.18552002 35.26976196 28.80854004 35.91583252 29.45043945 C36.49693787 30.03784912 37.07804321 30.62525879 37.67675781 31.23046875 C38.18716614 31.74246826 38.69757446 32.25446777 39.22344971 32.78198242 C41.99706726 36.08165051 42.87097708 38.97922822 42.9375 43.25 C42.96585938 44.07242188 42.99421875 44.89484375 43.0234375 45.7421875 C41.68598352 53.38154326 34.40111103 58.73089174 29.125 63.875 C24.019457 68.87555469 19.04787521 73.80810441 14.5625 79.375 C14.06741943 79.79749023 13.57233887 80.21998047 13.06225586 80.65527344 C10.96787186 83.05684285 10.38598822 85.43813236 9.4765625 88.484375 C8.9196875 90.31971802 8.9196875 90.31971802 8.3515625 92.19213867 C7.96351693 93.50308513 7.57549651 94.81403903 7.1875 96.125 C6.58866166 98.10917012 5.98638065 100.09227448 5.38397217 102.07536316 C4.98871384 103.37745081 4.59454104 104.6798685 4.20147705 105.98262024 C2.72644024 110.86729167 1.18764524 115.72584759 -0.4375 120.5625 C-0.994375 122.22345703 -0.994375 122.22345703 -1.5625 123.91796875 C-2.4375 126.375 -2.4375 126.375 -3.4375 128.375 C-5.67016602 128.87402344 -5.67016602 128.87402344 -8.69140625 129.234375 C-9.83697998 129.3777832 -10.98255371 129.52119141 -12.1628418 129.66894531 C-13.429104 129.81944336 -14.69536621 129.96994141 -16 130.125 C-18.72706372 130.46527473 -21.45362678 130.80815532 -24.1796875 131.15625 C-25.27191872 131.29501556 -25.27191872 131.29501556 -26.38621521 131.43658447 C-32.2532348 132.19386278 -38.09951599 133.063103 -43.9453125 133.96875 C-45.27510384 134.173862 -45.27510384 134.173862 -46.63175964 134.38311768 C-50.16248205 134.92900319 -53.69287095 135.4763678 -57.22097778 136.03894043 C-81.36236846 139.88461003 -81.36236846 139.88461003 -87.875 136.6875 C-95.25050726 130.03155442 -95.25050726 130.03155442 -95.60313416 125.0218811 C-95.65022974 117.20255422 -94.79746103 109.78809076 -93.50390625 102.0859375 C-93.20781715 100.24921982 -93.20781715 100.24921982 -92.90574646 98.37539673 C-92.27933562 94.49876604 -91.6403311 90.62435339 -91 86.75 C-90.36549921 82.86817774 -89.73371817 78.98593731 -89.10496521 75.10317993 C-88.71481261 72.6983994 -88.32103289 70.29420348 -87.92298889 67.89071655 C-86.96981001 62.06036048 -86.16632687 56.29510239 -85.77891541 50.39761353 C-85.4375 48.375 -85.4375 48.375 -83.4375 45.375 C-81.01545217 44.38076604 -78.68420191 43.55067905 -76.19140625 42.78125 C-75.10278542 42.43205505 -75.10278542 42.43205505 -73.99217224 42.07580566 C-71.66449631 41.33219599 -69.33237136 40.60373059 -67 39.875 C-65.46389712 39.38504034 -63.92808616 38.89416444 -62.39257812 38.40234375 C-61.64429749 38.16471817 -60.89601685 37.92709259 -60.12506104 37.68226624 C-58.62520489 37.20582012 -57.12646174 36.72585626 -55.62884521 36.24241638 C-51.67201481 34.98679126 -47.87128812 34.11554813 -43.76953125 33.44140625 C-35.28882927 31.19160512 -29.3503047 22.97888453 -23.5625 16.8125 C-21.62606835 14.77799373 -19.68386128 12.74957771 -17.73287964 10.72901917 C-16.5268692 9.47714401 -15.32984269 8.21653217 -14.14334106 6.94615173 C-9.92023801 2.5211027 -6.30233223 0.11234104 0 0 Z M-3.40869141 19.11914062 C-4.5869751 20.31313477 -4.5869751 20.31313477 -5.7890625 21.53125 C-6.63984375 22.38847656 -7.490625 23.24570313 -8.3671875 24.12890625 C-9.25664062 25.03511719 -10.14609375 25.94132812 -11.0625 26.875 C-11.9596875 27.78121094 -12.856875 28.68742187 -13.78125 29.62109375 C-16.00451538 31.86801089 -18.22299657 34.11945216 -20.4375 36.375 C-17.06615057 41.09474382 -13.76200814 45.28948448 -9.3125 49.0625 C-6.77832041 51.22168417 -4.58740354 53.177742 -2.5703125 55.83203125 C0.0337001 59.15198587 0.0337001 59.15198587 6.5625 63.375 C12.8325 57.105 19.1025 50.835 25.5625 44.375 C22.77500551 38.80001103 18.93743401 34.27494721 14.0625 30.375 C11.06094532 27.97375626 8.75966789 25.22655767 6.30859375 22.27734375 C4.52303354 20.33200187 2.76863092 18.82319637 0.5625 17.375 C-1.62653221 17.15411402 -1.62653221 17.15411402 -3.40869141 19.11914062 Z M-41.140625 48.4921875 C-41.81542908 48.7094046 -42.49023315 48.9266217 -43.18548584 49.15042114 C-44.61819634 49.61208241 -46.05066417 50.07449731 -47.48291016 50.53759766 C-49.66362982 51.24228647 -51.84542342 51.9435702 -54.02734375 52.64453125 C-55.41933769 53.0935428 -56.81126684 53.54275525 -58.203125 53.9921875 C-58.85226868 54.20060272 -59.50141235 54.40901794 -60.17022705 54.62374878 C-61.93028688 55.19439654 -63.68414246 55.7840797 -65.4375 56.375 C-66.37045898 56.56852051 -67.30341797 56.76204102 -68.26464844 56.96142578 C-70.92064866 58.68931806 -70.96206781 59.42376911 -71.66723633 62.43212891 C-71.94819443 64.07579837 -72.20462029 65.7238326 -72.4375 67.375 C-72.55636566 68.11788269 -72.67523132 68.86076538 -72.79769897 69.62615967 C-73.14926492 71.90121241 -73.46093114 74.17863941 -73.76171875 76.4609375 C-73.87224075 77.28453766 -73.98276276 78.10813782 -74.09663391 78.95669556 C-74.32632259 80.67902841 -74.55393829 82.4016389 -74.77954102 84.12451172 C-75.1269899 86.76512321 -75.48606506 89.40399305 -75.84570312 92.04296875 C-76.06841383 93.72386501 -76.29044371 95.40485165 -76.51171875 97.0859375 C-76.61997482 97.87342377 -76.7282309 98.66091003 -76.83976746 99.47225952 C-77.2716302 102.84293744 -77.52665477 105.1075357 -76.4375 108.375 C-76.04548401 107.97188095 -75.65346802 107.5687619 -75.24957275 107.15342712 C-71.17658453 102.97004433 -67.08627608 98.80419046 -62.98535156 94.64819336 C-61.4560712 93.09372829 -59.93130302 91.53481094 -58.41113281 89.97143555 C-56.22844388 87.72827446 -54.03016357 85.50149209 -51.828125 83.27734375 C-51.1488092 82.57222153 -50.46949341 81.8670993 -49.76959229 81.14060974 C-49.12923035 80.49987015 -48.48886841 79.85913055 -47.82910156 79.19897461 C-46.98971039 78.34292885 -46.98971039 78.34292885 -46.13336182 77.46958923 C-44.4375 76.375 -44.4375 76.375 -42.3895874 76.51100159 C-39.20639544 77.91988974 -37.56095145 80.69274554 -35.4375 83.375 C-34.4475 83.87 -34.4475 83.87 -33.4375 84.375 C-34.02051412 87.69445598 -35.01193222 89.31897352 -37.39672852 91.67480469 C-38.0172963 92.29514587 -38.63786407 92.91548706 -39.27723694 93.55462646 C-39.95016281 94.21206848 -40.62308868 94.8695105 -41.31640625 95.546875 C-42.0030687 96.2292926 -42.68973114 96.91171021 -43.39720154 97.61480713 C-45.59119415 99.79201196 -47.79538916 101.95855281 -50 104.125 C-51.48961634 105.59956971 -52.9785572 107.07482213 -54.46679688 108.55078125 C-58.11590808 112.16682176 -61.77420379 115.77333288 -65.4375 119.375 C-62.3670498 120.3984834 -61.13171854 120.37452153 -58.01367188 119.95361328 C-57.12264771 119.83664093 -56.23162354 119.71966858 -55.31359863 119.59915161 C-54.35417358 119.4658847 -53.39474854 119.3326178 -52.40625 119.1953125 C-51.41878784 119.06309296 -50.43132568 118.93087341 -49.41394043 118.79464722 C-47.32548961 118.51363337 -45.23748396 118.22929425 -43.14990234 117.94189453 C-39.95117033 117.50188048 -36.75116714 117.07233241 -33.55078125 116.64453125 C-31.52335422 116.37040687 -29.49600757 116.09568724 -27.46875 115.8203125 C-26.50932495 115.69109406 -25.5498999 115.56187561 -24.56140137 115.42874146 C-23.6703772 115.30546478 -22.77935303 115.18218811 -21.86132812 115.05517578 C-20.68576355 114.89409836 -20.68576355 114.89409836 -19.4864502 114.72976685 C-17.24696847 114.39467804 -17.24696847 114.39467804 -14.4375 113.375 C-13.54200097 111.5365533 -13.54200097 111.5365533 -13.0078125 109.24609375 C-12.76933594 108.37404297 -12.53085938 107.50199219 -12.28515625 106.60351562 C-12.04667969 105.68248047 -11.80820313 104.76144531 -11.5625 103.8125 C-11.08851083 102.03967457 -10.61186359 100.26755806 -10.1328125 98.49609375 C-9.87918945 97.55620605 -9.62556641 96.61631836 -9.36425781 95.64794922 C-7.53287471 89.18021427 -5.47208495 82.78116586 -3.4375 76.375 C-7.68848563 72.09937647 -11.94268377 67.82698597 -16.19995117 63.55761719 C-17.64909193 62.10343396 -19.09733578 60.64835638 -20.54467773 59.19238281 C-22.61990437 57.10508678 -24.69828891 55.02098208 -26.77734375 52.9375 C-27.42839584 52.28128662 -28.07944794 51.62507324 -28.75022888 50.94897461 C-30.29378826 49.4052211 -31.86298978 47.88717329 -33.4375 46.375 C-35.98729608 46.375 -38.71013505 47.7064922 -41.140625 48.4921875 Z " fill="#000001" transform="translate(241.4375,91.625)"/>
<path d="" fill="#FFFFFF" transform="translate(0,0)"/>
<path d="" fill="#FFFFFF" transform="translate(0,0)"/>
<path d="" fill="#FFFFFF" transform="translate(0,0)"/>
<path d="" fill="#FFFFFF" transform="translate(0,0)"/>
<path d="" fill="#FFFFFF" transform="translate(0,0)"/>
<path d="" fill="#FFFFFF" transform="translate(0,0)"/>
<path d="" fill="#FFFFFF" transform="translate(0,0)"/>
<path d="" fill="#FFFFFF" transform="translate(0,0)"/>
<path d="" fill="#FFFFFF" transform="translate(0,0)"/>
<path d="" fill="#FFFFFF" transform="translate(0,0)"/>
<path d="" fill="#FFFFFF" transform="translate(0,0)"/>
<path d="" fill="#FFFFFF" transform="translate(0,0)"/>
<path d="" fill="#FFFFFF" transform="translate(0,0)"/>
<path d="" fill="#FFFFFF" transform="translate(0,0)"/>
<path d="" fill="#FFFFFF" transform="translate(0,0)"/>
<path d="" fill="#FFFFFF" transform="translate(0,0)"/>
<path d="" fill="#FFFFFF" transform="translate(0,0)"/>
<path d="" fill="#FFFFFF" transform="translate(0,0)"/>
<path d="" fill="#FFFFFF" transform="translate(0,0)"/>
<path d="" fill="#FFFFFF" transform="translate(0,0)"/>
<path d="" fill="#FFFFFF" transform="translate(0,0)"/>
<path d="" fill="#FFFFFF" transform="translate(0,0)"/>
<path d="" fill="#FFFFFF" transform="translate(0,0)"/>
<path d="" fill="#FFFFFF" transform="translate(0,0)"/>
<path d="" fill="#FFFFFF" transform="translate(0,0)"/>
<path d="" fill="#FFFFFF" transform="translate(0,0)"/>
<path d="" fill="#FFFFFF" transform="translate(0,0)"/>
<path d="" fill="#FFFFFF" transform="translate(0,0)"/>
<path d="" fill="#FFFFFF" transform="translate(0,0)"/>
<path d="" fill="#FFFFFF" transform="translate(0,0)"/>
<path d="" fill="#FFFFFF" transform="translate(0,0)"/>
<path d="" fill="#FFFFFF" transform="translate(0,0)"/>
<path d="" fill="#FFFFFF" transform="translate(0,0)"/>
<path d="" fill="#FFFFFF" transform="translate(0,0)"/>
<path d="" fill="#FFFFFF" transform="translate(0,0)"/>
<path d="" fill="#FFFFFF" transform="translate(0,0)"/>
<path d="" fill="#FFFFFF" transform="translate(0,0)"/>
<path d="" fill="#FFFFFF" transform="translate(0,0)"/>
<path d="" fill="#FFFFFF" transform="translate(0,0)"/>
<path d="" fill="#FFFFFF" transform="translate(0,0)"/>
<path d="" fill="#FFFFFF" transform="translate(0,0)"/>
<path d="" fill="#FFFFFF" transform="translate(0,0)"/>
<path d="" fill="#FFFFFF" transform="translate(0,0)"/>
<path d="" fill="#FFFFFF" transform="translate(0,0)"/>
<path d="" fill="#FFFFFF" transform="translate(0,0)"/>
<path d="" fill="#FFFFFF" transform="translate(0,0)"/>
<path d="" fill="#FFFFFF" transform="translate(0,0)"/>
<path d="" fill="#FFFFFF" transform="translate(0,0)"/>
<path d="" fill="#FFFFFF" transform="translate(0,0)"/>
<path d="" fill="#FFFFFF" transform="translate(0,0)"/>
<path d="" fill="#FFFFFF" transform="translate(0,0)"/>
<path d="" fill="#FFFFFF" transform="translate(0,0)"/>
<path d="" fill="#FFFFFF" transform="translate(0,0)"/>
<path d="" fill="#FFFFFF" transform="translate(0,0)"/>
<path d="" fill="#FFFFFF" transform="translate(0,0)"/>
<path d="" fill="#FFFFFF" transform="translate(0,0)"/>
<path d="" fill="#FFFFFF" transform="translate(0,0)"/>
<path d="" fill="#FFFFFF" transform="translate(0,0)"/>
<path d="" fill="#FFFFFF" transform="translate(0,0)"/>
<path d="" fill="#FFFFFF" transform="translate(0,0)"/>
<path d="" fill="#FFFFFF" transform="translate(0,0)"/>
<path d="" fill="#FFFFFF" transform="translate(0,0)"/>
<path d="" fill="#FFFFFF" transform="translate(0,0)"/>
<path d="" fill="#FFFFFF" transform="translate(0,0)"/>
<path d="" fill="#00FFFF" transform="translate(0,0)"/>
<path d="" fill="#FFFFFF" transform="translate(0,0)"/>
<path d="" fill="#FFFFFF" transform="translate(0,0)"/>
<path d="" fill="#FFFFFF" transform="translate(0,0)"/>
<path d="" fill="#FFFFFF" transform="translate(0,0)"/>
<path d="" fill="#FFFFFF" transform="translate(0,0)"/>
<path d="" fill="#FFFFFF" transform="translate(0,0)"/>
<path d="" fill="#FFFFFF" transform="translate(0,0)"/>
<path d="" fill="#FFFFFF" transform="translate(0,0)"/>
<path d="" fill="#FFFFFF" transform="translate(0,0)"/>
<path d="" fill="#FFFFFF" transform="translate(0,0)"/>
<path d="" fill="#FFFFFF" transform="translate(0,0)"/>
<path d="" fill="#FFFFFF" transform="translate(0,0)"/>
<path d="" fill="#FFFFFF" transform="translate(0,0)"/>
<path d="" fill="#FFFFFF" transform="translate(0,0)"/>
<path d="" fill="#FFFFFF" transform="translate(0,0)"/>
<path d="" fill="#FFFFFF" transform="translate(0,0)"/>
<path d="" fill="#FFFFFF" transform="translate(0,0)"/>
<path d="" fill="#FFFFFF" transform="translate(0,0)"/>
</svg>
