<?xml version="1.0" encoding="UTF-8"?>
<svg version="1.1" xmlns="http://www.w3.org/2000/svg" width="357" height="319">
<path d="M0 0 C1.16155609 -0.00960754 2.32311218 -0.01921509 3.51986694 -0.02911377 C4.77095245 -0.03336365 6.02203796 -0.03761353 7.31103516 -0.04199219 C8.60071198 -0.04769226 9.89038879 -0.05339233 11.21914673 -0.05926514 C13.94769686 -0.06975384 16.67621772 -0.07561054 19.40478516 -0.07910156 C22.89056918 -0.08458443 26.37596225 -0.10861647 29.86162376 -0.13707352 C33.1989198 -0.16024358 36.53616289 -0.16215206 39.87353516 -0.16699219 C41.74409073 -0.18551239 41.74409073 -0.18551239 43.6524353 -0.20440674 C51.25958275 -0.18485834 56.15037978 0.23283007 61.85009766 5.66113281 C65.57073075 10.44136368 68.22509766 17.10598698 68.22509766 23.16113281 C70.51090787 24.30403792 71.78089229 24.28552912 74.32006836 24.28710938 C75.58697258 24.29281952 75.58697258 24.29281952 76.87947083 24.29864502 C77.79403549 24.29967224 78.70860016 24.30069946 79.65087891 24.30175781 C81.58122924 24.32008625 83.51156811 24.33965659 85.44189453 24.36035156 C88.49018664 24.38932446 91.53774288 24.41113284 94.58618164 24.41162109 C97.52508082 24.41495615 100.46227563 24.44951068 103.40087891 24.48925781 C104.30937088 24.48218811 105.21786285 24.47511841 106.15388489 24.46783447 C110.64914529 24.55423541 112.61742176 24.6922612 116.27661133 27.515625 C119.0028469 31.2171021 119.36833311 34.00764957 119.54150391 38.48535156 C119.6043457 40.02739258 119.6043457 40.02739258 119.66845703 41.60058594 C119.70777344 42.67244141 119.74708984 43.74429688 119.78759766 44.84863281 C119.83078125 45.93208984 119.87396484 47.01554687 119.91845703 48.13183594 C120.02456603 50.80814072 120.12662126 53.48453808 120.22509766 56.16113281 C119.56509766 56.16113281 118.90509766 56.16113281 118.22509766 56.16113281 C117.82291016 57.33675781 117.82291016 57.33675781 117.41259766 58.53613281 C116.22509766 61.16113281 116.22509766 61.16113281 113.22509766 63.16113281 C110.90121819 63.55501069 108.56716016 63.89599366 106.22509766 64.16113281 C106.11963623 65.22098389 106.0141748 66.28083496 105.90551758 67.37280273 C105.49970776 71.44950885 105.09314166 75.52613931 104.68640137 79.60275269 C104.50415159 81.43047097 104.32210342 83.25820938 104.14025879 85.08596802 C103.21553261 94.37934236 102.28721903 103.67193434 101.29150391 112.95800781 C101.15268799 114.2610083 101.01387207 115.56400879 100.87084961 116.90649414 C100.61429564 119.29999545 100.35395055 121.69309464 100.08911133 124.08569336 C99.44041091 130.15401985 99.09674596 136.05800949 99.22509766 142.16113281 C98.56509766 142.16113281 97.90509766 142.16113281 97.22509766 142.16113281 C97.22509766 149.42113281 97.22509766 156.68113281 97.22509766 164.16113281 C96.89509766 164.16113281 96.56509766 164.16113281 96.22509766 164.16113281 C96.05425389 165.84821504 95.88865339 167.53582846 95.72509766 169.22363281 C95.63228516 170.16335937 95.53947266 171.10308594 95.44384766 172.07128906 C95.17910496 175.20085871 95.17910496 175.20085871 95.26806641 178.50488281 C95.1380513 189.56798665 93.45566099 200.83256061 85.48681641 208.92675781 C81.07223344 212.97267111 77.82697624 214.27803783 71.81170654 214.30157471 C70.93428299 214.30728485 70.05685944 214.312995 69.15284729 214.31887817 C67.72053017 214.32055496 67.72053017 214.32055496 66.25927734 214.32226562 C64.74148933 214.32971298 64.74148933 214.32971298 63.19303894 214.33731079 C59.84434326 214.35191973 56.49569497 214.35873261 53.14697266 214.36425781 C50.81772867 214.37001065 48.48848469 214.37576837 46.15924072 214.38153076 C41.27347595 214.39203738 36.38772761 214.39788216 31.50195312 214.40136719 C25.2498066 214.40684877 18.99787819 214.43087126 12.74580002 214.45933914 C7.93301769 214.47798876 3.12028764 214.48317239 -1.69252777 214.48470306 C-3.99694765 214.48772525 -6.3013667 214.49573908 -8.60575104 214.50888824 C-11.83450271 214.52599566 -15.06272495 214.52405671 -18.29150391 214.51757812 C-19.23828506 214.52679291 -20.18506622 214.53600769 -21.16053772 214.54550171 C-27.99633928 214.50266442 -33.77569809 213.61762392 -39.23583984 209.14550781 C-39.86748047 208.40816406 -40.49912109 207.67082031 -41.14990234 206.91113281 C-41.79701172 206.18410156 -42.44412109 205.45707031 -43.11083984 204.70800781 C-46.99628964 198.76126305 -47.25309949 191.85078779 -47.81787109 184.95019531 C-48.00315694 182.84716648 -48.18846056 180.74413922 -48.3737793 178.64111328 C-48.46938141 177.52653748 -48.56498352 176.41196167 -48.66348267 175.26361084 C-50.1469151 158.00611968 -51.77275554 140.76965886 -53.65771484 123.55175781 C-53.73771288 122.81961941 -53.81771091 122.087481 -53.90013313 121.33315659 C-54.6902425 114.11002371 -55.48993692 106.88803085 -56.30581665 99.66776276 C-56.53589894 97.62353827 -56.76316053 95.57902146 -56.98934937 93.53436279 C-57.26582384 91.03948127 -57.54740257 88.54515723 -57.83535767 86.05157471 C-58.64220929 78.72244891 -58.93824693 71.53313586 -58.77490234 64.16113281 C-59.50354492 64.06525879 -60.2321875 63.96938477 -60.98291016 63.87060547 C-68.00215669 62.9470204 -68.00215669 62.9470204 -71.07177734 59.82519531 C-73.89455601 55.05226347 -73.35271465 49.53018168 -73.27490234 44.16113281 C-73.29037109 43.09378906 -73.30583984 42.02644531 -73.32177734 40.92675781 C-73.2909891 34.73832122 -72.99615739 30.82341451 -68.77490234 26.16113281 C-66.44480255 24.99608291 -65.10243157 25.04019701 -62.50878906 25.04760742 C-61.18764603 25.04772072 -61.18764603 25.04772072 -59.83981323 25.0478363 C-58.88768951 25.05299759 -57.9355658 25.05815887 -56.95458984 25.06347656 C-55.49389572 25.06559898 -55.49389572 25.06559898 -54.00369263 25.06776428 C-50.88573161 25.07337308 -47.76784175 25.08592708 -44.64990234 25.09863281 C-42.5392263 25.10364668 -40.42854912 25.10820978 -38.31787109 25.11230469 C-33.13685713 25.12334537 -27.95588482 25.14009208 -22.77490234 25.16113281 C-22.48160034 24.16206909 -22.48160034 24.16206909 -22.18237305 23.14282227 C-21.92029053 22.25812256 -21.65820801 21.37342285 -21.38818359 20.46191406 C-21.00206909 19.15347534 -21.00206909 19.15347534 -20.6081543 17.81860352 C-18.34110944 10.5883711 -16.20313704 5.44662261 -9.77490234 1.16113281 C-6.51284082 0.06293323 -3.42591609 0.02290769 0 0 Z M-7.77490234 14.16113281 C-8.77563855 16.61682763 -8.77563855 16.61682763 -9.46240234 19.28613281 C-9.71376953 20.17558594 -9.96513672 21.06503906 -10.22412109 21.98144531 C-10.81573364 23.94802072 -10.81573364 23.94802072 -10.77490234 25.16113281 C11.99509766 25.16113281 34.76509766 25.16113281 58.22509766 25.16113281 C55.16763559 12.85145621 55.16763559 12.85145621 51.22509766 11.16113281 C49.4540981 11.05512645 47.67915568 11.01234403 45.9050293 11 C44.23803734 10.98558868 44.23803734 10.98558868 42.53736877 10.97088623 C41.33217087 10.96663635 40.12697296 10.96238647 38.88525391 10.95800781 C37.03570351 10.9494577 37.03570351 10.9494577 35.14878845 10.94073486 C32.5369452 10.93127552 29.92508997 10.92474719 27.31323242 10.92089844 C24.63112883 10.91650061 21.94934457 10.90256125 19.26733398 10.87988281 C15.4107072 10.84952501 11.55448663 10.83886224 7.69775391 10.83300781 C6.49458023 10.82066101 5.29140656 10.80831421 4.05177307 10.79559326 C2.93729294 10.79859436 1.82281281 10.80159546 0.67456055 10.8046875 C-0.30757919 10.80104187 -1.28971893 10.79739624 -2.30162048 10.79364014 C-5.1957511 11.22366464 -6.04567846 11.84759142 -7.77490234 14.16113281 Z M-61.77490234 36.16113281 C-61.77490234 41.77113281 -61.77490234 47.38113281 -61.77490234 53.16113281 C-5.67490234 53.16113281 50.42509766 53.16113281 108.22509766 53.16113281 C108.22509766 47.55113281 108.22509766 41.94113281 108.22509766 36.16113281 C52.12509766 36.16113281 -3.97490234 36.16113281 -61.77490234 36.16113281 Z M-47.77490234 63.16113281 C-47.77490234 72.08755617 -47.76991836 80.43578984 -46.78100586 89.20458984 C-46.67532288 90.20026978 -46.56963989 91.19594971 -46.46075439 92.22180176 C-46.11580562 95.45502358 -45.75985025 98.68692805 -45.40380859 101.91894531 C-45.15883372 104.197989 -44.91462068 106.47711469 -44.67112732 108.75631714 C-44.03227345 114.71956643 -43.38431873 120.68178933 -42.73400879 126.64379883 C-41.69456264 136.18981121 -40.67013145 145.73745038 -39.64378166 155.28487778 C-39.28670673 158.59571299 -38.92635612 161.90617761 -38.56532288 165.21658325 C-38.34262165 167.26984192 -38.1202338 169.32313461 -37.89819336 171.37646484 C-37.79363107 172.33968721 -37.68906878 173.30290958 -37.58133793 174.29532051 C-36.9241241 180.45341285 -36.40232438 186.59728234 -36.08262634 192.78317261 C-35.59460273 196.55441159 -34.3757662 198.41164817 -31.77490234 201.16113281 C-28.90792202 202.89390667 -26.78713743 203.41261091 -23.45521545 203.42182922 C-22.59869888 203.42891403 -21.74218231 203.43599884 -20.85971069 203.44329834 C-19.46240219 203.43958221 -19.46240219 203.43958221 -18.03686523 203.43579102 C-17.04944839 203.44090195 -16.06203156 203.44601288 -15.04469299 203.45127869 C-11.77891996 203.46518489 -8.51335772 203.46421716 -5.24755859 203.46191406 C-2.97838767 203.46580035 -0.70921747 203.47013488 1.55995178 203.47489929 C6.31709145 203.48236367 11.0741569 203.48206857 15.83129883 203.47680664 C21.92906508 203.47101096 28.0265277 203.48794455 34.12424374 203.51115131 C38.81081419 203.52587896 43.49731134 203.52676167 48.18390083 203.52364159 C50.43218144 203.52415526 52.6804661 203.52940156 54.92872429 203.53945351 C58.07190595 203.55178192 61.21449395 203.54504758 64.35766602 203.53344727 C65.28718079 203.541091 66.21669556 203.54873474 67.17437744 203.55661011 C72.01638817 203.51708731 75.30193256 203.32643935 79.22509766 200.16113281 C82.86397832 195.79570055 82.93425944 191.03306148 83.36572266 185.58300781 C83.45354507 184.61193588 83.54136749 183.64086395 83.6318512 182.6403656 C83.82290637 180.51749911 84.00842533 178.39412889 84.18911743 176.27035522 C84.68447858 170.4516722 85.21934084 164.63661679 85.75244141 158.82128906 C85.86541061 157.5798262 85.97837982 156.33836334 86.09477234 155.0592804 C86.9963622 145.28824186 88.02497527 135.53501589 89.10400391 125.78222656 C89.22417562 124.6921612 89.22417562 124.6921612 89.34677505 123.58007431 C90.13916316 116.3931073 90.93902036 109.2070606 91.7562952 102.0228796 C91.98705452 99.98278003 92.21410831 97.94230557 92.43968201 95.90162659 C92.71492708 93.41449621 92.99630253 90.92803189 93.28553772 88.44248962 C94.22494103 79.86323076 94.22509766 71.9217373 94.22509766 63.16113281 C47.36509766 63.16113281 0.50509766 63.16113281 -47.77490234 63.16113281 Z " fill="#010101" transform="translate(157.77490234375,57.8388671875)"/>
<path d="M0 0 C1.45823212 -0.0270043 2.91660675 -0.04639787 4.375 -0.0625 C5.18710938 -0.07410156 5.99921875 -0.08570313 6.8359375 -0.09765625 C9 0 9 0 11 1 C10.2404106 12.84801114 9.47586381 24.6956908 8.7049036 36.5429678 C8.34711238 42.04354522 7.9910602 47.54422395 7.63891602 53.04516602 C7.29931176 58.34923208 6.95522618 63.65298978 6.60796928 68.95656013 C6.47597471 70.98474768 6.34562303 73.0130428 6.21690559 75.04144096 C6.03699349 77.87224544 5.85135738 80.70261855 5.66430664 83.53295898 C5.61179749 84.38028091 5.55928833 85.22760284 5.50518799 86.1006012 C5.11405216 91.88594784 5.11405216 91.88594784 4 93 C0.33655389 93.13568319 -2.50615721 93.16461426 -6 92 C-6.17957536 82.24285099 -5.61427768 72.57714338 -4.94140625 62.8515625 C-4.83143336 61.22400689 -4.72173283 59.59643285 -4.61228943 57.96884155 C-4.38364999 54.58174983 -4.15223848 51.19486293 -3.91870117 47.80810547 C-3.62025711 43.47780475 -3.3280933 39.14710775 -3.03788853 34.81624794 C-2.8127744 31.46516719 -2.5847391 28.11429024 -2.35578728 24.7634697 C-2.2469407 23.16640068 -2.13890355 21.56927628 -2.03170967 19.97209549 C-1.88154985 17.74241681 -1.72754435 15.51303575 -1.57250977 13.28369141 C-1.48590591 12.01860748 -1.39930206 10.75352356 -1.31007385 9.45010376 C-1.02315608 6.25765113 -0.57497852 3.1519399 0 0 Z " fill="#020202" transform="translate(202,140)"/>
<path d="M0 0 C1.22589844 0.01353516 1.22589844 0.01353516 2.4765625 0.02734375 C3.41628906 0.04474609 3.41628906 0.04474609 4.375 0.0625 C6.07849569 16.57700805 7.2755126 33.1118311 8.36657715 49.67700195 C8.54579496 52.37756684 8.72995785 55.07778624 8.91401863 57.77802467 C9.13625771 61.05230613 9.35300155 64.32695085 9.5703125 67.6015625 C9.65153351 68.79133698 9.73275452 69.98111145 9.81643677 71.2069397 C10.26913041 78.17084289 10.4771282 85.08418048 10.375 92.0625 C6.88115721 93.22711426 4.03844611 93.19818319 0.375 93.0625 C-1.72499616 90.96250384 -1.10921795 86.50148734 -1.28930664 83.59545898 C-1.34797409 82.70773804 -1.40664154 81.82001709 -1.46708679 80.90539551 C-1.66085095 77.95673097 -1.84801375 75.00768535 -2.03515625 72.05859375 C-2.16784406 70.01975412 -2.30094123 67.98094108 -2.43443298 65.94215393 C-2.7854018 60.56492629 -3.13078429 55.18735363 -3.47503662 49.80969238 C-3.82701432 44.32668672 -4.1842299 38.84402265 -4.54101562 33.36132812 C-5.24082766 22.59538142 -5.93474345 11.82906328 -6.625 1.0625 C-4.21954362 -0.14022819 -2.67503047 -0.03821472 0 0 Z " fill="#010102" transform="translate(155.625,139.9375)"/>
<path d="M0 0 C0.66 0.33 1.32 0.66 2 1 C2.25 7.625 2.25 7.625 0 11 C-1.37432457 7.18243176 -0.67975039 3.92744671 0 0 Z " fill="#060609" transform="translate(162,193)"/>
<path d="" fill="#FFFFFF" transform="translate(0,0)"/>
<path d="" fill="#FFFFFF" transform="translate(0,0)"/>
<path d="" fill="#FFFFFF" transform="translate(0,0)"/>
<path d="" fill="#FFFFFF" transform="translate(0,0)"/>
<path d="" fill="#FFFFFF" transform="translate(0,0)"/>
<path d="" fill="#FFFFFF" transform="translate(0,0)"/>
<path d="" fill="#FFFFFF" transform="translate(0,0)"/>
<path d="" fill="#FFFFFF" transform="translate(0,0)"/>
<path d="" fill="#FFFFFF" transform="translate(0,0)"/>
<path d="" fill="#FFFFFF" transform="translate(0,0)"/>
<path d="" fill="#FFFFFF" transform="translate(0,0)"/>
<path d="" fill="#FFFFFF" transform="translate(0,0)"/>
<path d="" fill="#FFFFFF" transform="translate(0,0)"/>
<path d="" fill="#FFFFFF" transform="translate(0,0)"/>
<path d="" fill="#FFFFFF" transform="translate(0,0)"/>
<path d="" fill="#FFFFFF" transform="translate(0,0)"/>
<path d="" fill="#FFFFFF" transform="translate(0,0)"/>
<path d="" fill="#FFFFFF" transform="translate(0,0)"/>
<path d="" fill="#FFFFFF" transform="translate(0,0)"/>
<path d="" fill="#FFFFFF" transform="translate(0,0)"/>
<path d="" fill="#FFFFFF" transform="translate(0,0)"/>
<path d="" fill="#FFFFFF" transform="translate(0,0)"/>
<path d="" fill="#FFFFFF" transform="translate(0,0)"/>
<path d="" fill="#FFFFFF" transform="translate(0,0)"/>
<path d="" fill="#FFFFFF" transform="translate(0,0)"/>
<path d="" fill="#FFFFFF" transform="translate(0,0)"/>
<path d="" fill="#FFFFFF" transform="translate(0,0)"/>
<path d="" fill="#FFFFFF" transform="translate(0,0)"/>
<path d="" fill="#FFFFFF" transform="translate(0,0)"/>
<path d="" fill="#FFFFFF" transform="translate(0,0)"/>
<path d="" fill="#FFFFFF" transform="translate(0,0)"/>
<path d="" fill="#FFFFFF" transform="translate(0,0)"/>
<path d="" fill="#FFFFFF" transform="translate(0,0)"/>
<path d="" fill="#FFFFFF" transform="translate(0,0)"/>
<path d="" fill="#FFFFFF" transform="translate(0,0)"/>
<path d="" fill="#FFFFFF" transform="translate(0,0)"/>
<path d="" fill="#FFFFFF" transform="translate(0,0)"/>
<path d="" fill="#FFFFFF" transform="translate(0,0)"/>
<path d="" fill="#FFFFFF" transform="translate(0,0)"/>
<path d="" fill="#FFFFFF" transform="translate(0,0)"/>
<path d="" fill="#FFFFFF" transform="translate(0,0)"/>
<path d="" fill="#FFFFFF" transform="translate(0,0)"/>
<path d="" fill="#FFFFFF" transform="translate(0,0)"/>
<path d="" fill="#FFFFFF" transform="translate(0,0)"/>
<path d="" fill="#FFFFFF" transform="translate(0,0)"/>
<path d="" fill="#000000" transform="translate(0,0)"/>
<path d="" fill="#FFFFFF" transform="translate(0,0)"/>
<path d="" fill="#FFFFFF" transform="translate(0,0)"/>
<path d="" fill="#FFFFFF" transform="translate(0,0)"/>
<path d="" fill="#FFFFFF" transform="translate(0,0)"/>
<path d="" fill="#FFFFFF" transform="translate(0,0)"/>
<path d="" fill="#FFFFFF" transform="translate(0,0)"/>
<path d="" fill="#FFFFFF" transform="translate(0,0)"/>
<path d="" fill="#FFFFFF" transform="translate(0,0)"/>
<path d="" fill="#FFFFFF" transform="translate(0,0)"/>
<path d="" fill="#FFFFFF" transform="translate(0,0)"/>
<path d="" fill="#FFFFFF" transform="translate(0,0)"/>
<path d="" fill="#FFFFFF" transform="translate(0,0)"/>
<path d="" fill="#FFFFFF" transform="translate(0,0)"/>
<path d="" fill="#FFFFFF" transform="translate(0,0)"/>
<path d="" fill="#FFFFFF" transform="translate(0,0)"/>
<path d="" fill="#FFFFFF" transform="translate(0,0)"/>
<path d="" fill="#FFFFFF" transform="translate(0,0)"/>
<path d="" fill="#FFFFFF" transform="translate(0,0)"/>
<path d="" fill="#FFFFFF" transform="translate(0,0)"/>
<path d="" fill="#FFFFFF" transform="translate(0,0)"/>
<path d="" fill="#FFFFFF" transform="translate(0,0)"/>
<path d="" fill="#FFFFFF" transform="translate(0,0)"/>
<path d="" fill="#FFFFFF" transform="translate(0,0)"/>
<path d="" fill="#FFFFFF" transform="translate(0,0)"/>
<path d="" fill="#FFFFFF" transform="translate(0,0)"/>
<path d="" fill="#FFFFFF" transform="translate(0,0)"/>
<path d="" fill="#FFFFFF" transform="translate(0,0)"/>
</svg>
